<?xml version="1.0" standalone="no"?>
<!DOCTYPE svg PUBLIC "-//W3C//DTD SVG 20010904//EN"
 "http://www.w3.org/TR/2001/REC-SVG-20010904/DTD/svg10.dtd">
<svg version="1.0" xmlns="http://www.w3.org/2000/svg"
 width="300.000000pt" height="300.000000pt" viewBox="0 0 300.000000 300.000000"
 preserveAspectRatio="xMidYMid meet">
<metadata>
Created by potrace 1.10, written by Peter Selinger 2001-2011
</metadata>
<g transform="translate(0.000000,300.000000) scale(0.100000,-0.100000)"
fill="#000000" stroke="none">
<path d="M1420 2907 c-3 -2 -34 -7 -70 -10 -214 -19 -430 -98 -640 -234 -113
-73 -300 -260 -373 -373 -101 -156 -160 -288 -203 -455 -46 -177 -51 -416 -14
-605 34 -180 129 -395 242 -554 71 -101 223 -251 328 -325 179 -126 397 -211
640 -248 59 -9 271 -9 335 0 313 43 583 171 802 380 52 50 123 129 158 175
146 195 249 457 273 692 30 306 -29 582 -181 851 -69 122 -131 201 -245 311
-191 185 -463 328 -702 368 -36 6 -76 13 -90 16 -42 7 -255 17 -260 11z m233
-37 c92 -11 285 -56 301 -71 6 -5 16 -9 24 -9 27 0 228 -106 311 -165 80 -56
100 -73 199 -173 181 -184 299 -406 359 -672 41 -183 36 -430 -12 -615 -33
-125 -101 -284 -170 -394 -37 -58 -54 -82 -94 -131 -94 -113 -305 -300 -339
-300 -6 0 -12 -4 -14 -9 -5 -14 -198 -108 -255 -124 -28 -9 -60 -20 -70 -25
-10 -6 -31 -12 -48 -15 -16 -3 -54 -10 -84 -16 -69 -14 -169 -24 -241 -25 -60
-1 -223 11 -255 18 -176 41 -227 58 -345 113 -218 101 -415 268 -550 465 -33
47 -60 89 -60 91 0 3 -15 31 -33 64 -56 99 -115 273 -131 383 -2 19 -10 70
-16 112 -15 105 -4 285 26 423 68 304 261 610 499 789 33 25 65 50 71 55 39
32 274 151 300 151 8 0 14 5 14 10 0 6 9 10 19 10 10 0 63 12 117 26 55 14
126 28 159 31 33 3 62 7 64 9 8 8 166 4 254 -6z"/>
<path d="M1437 2464 c-1 -1 -33 -5 -72 -8 -186 -18 -408 -129 -550 -276 -81
-84 -75 -76 -126 -155 -119 -182 -176 -421 -150 -631 29 -236 127 -434 296
-597 228 -220 574 -312 885 -237 172 42 294 104 422 216 281 247 393 649 281
1009 -48 153 -115 267 -227 384 -184 191 -417 291 -689 295 -38 1 -69 0 -70 0z
m299 -58 c172 -47 301 -120 425 -245 125 -125 202 -262 251 -446 30 -113 30
-317 0 -430 -95 -357 -339 -602 -692 -696 -119 -31 -319 -32 -435 -1 -357 95
-602 339 -696 692 -31 118 -31 319 -1 435 83 314 282 543 572 657 66 26 176
54 240 62 79 10 247 -5 336 -28z"/>
<path d="M1375 2304 c-209 -48 -321 -105 -448 -231 -152 -150 -237 -355 -237
-573 0 -153 38 -287 118 -424 37 -61 197 -232 240 -255 l23 -12 -21 40 c-160
314 84 710 438 711 190 1 347 134 383 324 28 153 -67 324 -219 394 -48 22 -73
27 -157 28 -55 2 -109 1 -120 -2z m281 -62 c131 -67 211 -225 184 -359 -35
-169 -166 -281 -338 -289 -76 -4 -162 -23 -224 -48 -45 -19 -147 -96 -182
-138 -88 -106 -133 -251 -121 -394 l7 -86 -26 17 c-30 20 -112 129 -149 200
-156 295 -97 671 142 905 70 69 83 79 165 128 87 52 214 92 323 101 96 7 151
-2 219 -37z"/>
<path d="M1430 2072 c-74 -40 -101 -129 -64 -207 18 -38 42 -56 95 -74 31 -10
45 -9 90 7 44 15 58 26 76 58 41 70 24 161 -37 204 -45 32 -115 37 -160 12z
m162 -53 c57 -68 27 -171 -58 -199 -47 -16 -112 8 -137 49 -24 41 -22 112 4
145 29 37 55 47 114 42 41 -3 54 -9 77 -37z"/>
<path d="M1950 2151 c72 -142 63 -328 -23 -474 -38 -64 -123 -142 -196 -181
-69 -35 -131 -51 -241 -60 -36 -3 -79 -9 -95 -14 -136 -41 -239 -159 -266
-305 -27 -151 62 -317 209 -389 65 -32 70 -33 192 -32 114 0 133 3 220 33 133
45 220 100 321 200 101 101 155 189 200 321 27 80 33 114 36 215 7 175 -26
306 -115 459 -36 60 -197 232 -240 255 l-23 12 21 -40z m160 -164 c54 -68 106
-166 141 -267 18 -54 22 -88 23 -200 1 -74 -2 -148 -5 -165 -32 -151 -104
-288 -207 -393 -58 -60 -135 -122 -151 -122 -6 0 -11 -4 -11 -9 0 -11 -81 -46
-180 -78 -100 -33 -246 -42 -313 -19 -73 24 -99 40 -146 87 -162 162 -130 420
66 534 56 34 91 44 173 51 164 15 277 61 367 152 64 64 97 113 131 201 23 58
26 81 26 188 1 142 3 143 86 40z"/>
<path d="M1448 1205 c-67 -29 -98 -75 -98 -146 0 -112 120 -184 220 -130 82
43 107 152 53 224 -42 55 -117 77 -175 52z m122 -37 c30 -19 50 -64 50 -112 0
-36 -6 -52 -29 -78 -27 -31 -34 -33 -91 -33 -57 0 -64 2 -91 33 -24 26 -29 41
-29 82 0 41 5 55 30 84 17 19 41 37 53 39 29 6 85 -2 107 -15z"/>
</g>
</svg>
